<svg width="628" height="141" viewBox="0 0 628 141" fill="none" xmlns="http://www.w3.org/2000/svg">
<g filter="url(#filter0_i_8_10)">
<path d="M137.515 55.8273C138.787 55.5479 139.594 54.2923 139.272 53.0349C135.165 37.0262 125.536 22.9358 112.034 13.2605C97.8935 3.12715 80.4986 -1.45076 63.1814 0.403619C45.8642 2.258 29.8422 10.4143 18.184 23.3103C6.52593 36.2064 0.0513103 52.9355 0.00030367 70.2935C-0.0507029 87.6516 6.32549 104.418 17.9076 117.382C29.4897 130.346 45.4636 138.596 62.7696 140.551C80.0755 142.506 97.497 138.03 111.697 127.98C125.256 118.383 134.967 104.349 139.168 88.3648C139.498 87.1093 138.698 85.849 137.428 85.5622L89.7265 74.7886C88.4565 74.5017 87.2088 75.3038 86.7492 76.5181C85.5539 79.6769 83.4369 82.4292 80.6464 84.4043C77.2113 86.8355 72.9971 87.9184 68.8108 87.4453C64.6244 86.9723 60.7604 84.9767 57.9587 81.8408C55.1569 78.7048 53.6145 74.649 53.6269 70.45C53.6392 66.2511 55.2054 62.2044 58.0255 59.0848C60.8456 55.9653 64.7214 53.9923 68.9104 53.5437C73.0994 53.0951 77.3072 54.2025 80.7279 56.6538C83.5068 58.6451 85.6075 61.4097 86.7843 64.5754C87.2367 65.7924 88.4797 66.6018 89.7514 66.3223L137.515 55.8273Z" fill="#BF212F"/>
<path d="M628 70.5C628 109.436 596.329 141 557.262 141C518.194 141 486.523 109.436 486.523 70.5C486.523 31.564 518.194 0.000162572 557.262 0.000162572C596.329 0.000162572 628 31.564 628 70.5ZM540.148 70.5C540.148 79.9199 547.81 87.5562 557.262 87.5562C566.713 87.5562 574.376 79.9199 574.376 70.5C574.376 61.0801 566.713 53.4438 557.262 53.4438C547.81 53.4438 540.148 61.0801 540.148 70.5Z" fill="#006D3C"/>
<path d="M232.215 7.62587C234.764 2.6652 241.074 2.68432 243.6 7.66035L303.262 125.184C306.459 131.481 300.683 138.742 294.855 135.753L238.939 109.667C237.216 108.783 235.402 109.667 235.402 109.667L179.99 135.753C174.145 138.756 168.108 131.482 171.344 125.184L232.215 7.62587Z" fill="#FAA73F"/>
<path d="M359.98 11.7501C359.98 5.2608 365.258 0.000162572 371.77 0.000162572H418.929C425.44 0.000162572 430.718 5.2608 430.718 11.7501V129.25C430.718 135.739 425.44 141 418.929 141H371.77C365.258 141 359.98 135.739 359.98 129.25V11.7501Z" fill="#264A96"/>
</g>
<defs>
<filter id="filter0_i_8_10" x="0" y="0" width="628" height="146" filterUnits="userSpaceOnUse" color-interpolation-filters="sRGB">
<feFlood flood-opacity="0" result="BackgroundImageFix"/>
<feBlend mode="normal" in="SourceGraphic" in2="BackgroundImageFix" result="shape"/>
<feColorMatrix in="SourceAlpha" type="matrix" values="0 0 0 0 0 0 0 0 0 0 0 0 0 0 0 0 0 0 127 0" result="hardAlpha"/>
<feOffset dy="10"/>
<feGaussianBlur stdDeviation="2.5"/>
<feComposite in2="hardAlpha" operator="arithmetic" k2="-1" k3="1"/>
<feColorMatrix type="matrix" values="0 0 0 0 0 0 0 0 0 0 0 0 0 0 0 0 0 0 0.25 0"/>
<feBlend mode="normal" in2="shape" result="effect1_innerShadow_8_10"/>
</filter>
</defs>
</svg>
